<svg xmlns="http://www.w3.org/2000/svg" version="1.0" width="256.000000pt" height="256.000000pt" viewBox="0 0 256.000000 256.000000" preserveAspectRatio="xMidYMid meet">
<g transform="translate(127.000000,300.000000) scale(0.100000,-0.100000) rotate(45)" fill="#00CC00" stroke="none">
<path d="M894 1759 c-41 -12 -91 -69 -99 -113 -13 -66 10 -103 143 -238 l126 -128 -126 -127 c-142 -144 -161 -179 -139 -252 14 -48 68 -98 115 -106 66 -13 103 10 238 143 l128 126 133 -131 c116 -114 138 -131 174 -138 118 -19 213 94 168 201 -10 24 -63 87 -138 162 l-122 122 122 123 c75 74 128 137 138 161 47 112 -62 231 -180 196 -30 -9 -71 -42 -168 -138 l-127 -126 -123 121 c-146 147 -182 166 -263 142z"/>
</g>
</svg>