<?xml version="1.0" standalone="no"?>
<!DOCTYPE svg PUBLIC "-//W3C//DTD SVG 20010904//EN"
 "http://www.w3.org/TR/2001/REC-SVG-20010904/DTD/svg10.dtd">
<svg version="1.0" xmlns="http://www.w3.org/2000/svg"
 width="256.000000pt" height="256.000000pt" viewBox="0 0 256.000000 256.000000"
 preserveAspectRatio="xMidYMid meet">
<g transform="translate(0.000000,256.000000) scale(0.100000,-0.100000)"
fill="#FF0000" stroke="none">
<path d="M1098 2414 c-550 -85 -968 -575 -968 -1134 0 -441 259 -848 661
-1039 690 -328 1510 109 1624 866 55 366 -62 722 -324 984 -263 263 -625 381
-993 323z m380 -295 c381 -84 662 -436 663 -830 1 -118 -4 -153 -33 -254 -96
-331 -395 -579 -741 -614 -476 -47 -899 297 -946 771 -52 529 380 980 909 950
30 -1 97 -12 148 -23z"/>
<path d="M894 1759 c-41 -12 -91 -69 -99 -113 -13 -66 10 -103 143 -238 l126
-128 -126 -127 c-142 -144 -161 -179 -139 -252 14 -48 68 -98 115 -106 66 -13
103 10 238 143 l128 126 133 -131 c116 -114 138 -131 174 -138 118 -19 213 94
168 201 -10 24 -63 87 -138 162 l-122 122 122 123 c75 74 128 137 138 161 47
112 -62 231 -180 196 -30 -9 -71 -42 -168 -138 l-127 -126 -123 121 c-146 147
-182 166 -263 142z"/>
</g>
</svg>
